<svg width="23" height="25" viewBox="0 0 23 25" fill="none" xmlns="http://www.w3.org/2000/svg">
<path d="M1.25 25C0.895833 25 0.598958 24.8802 0.359375 24.6406C0.119792 24.401 0 24.1042 0 23.75V17.5C0 16.8125 0.244792 16.224 0.734375 15.7344C1.22396 15.2448 1.8125 15 2.5 15V10C2.5 9.3125 2.74479 8.72396 3.23438 8.23438C3.72396 7.74479 4.3125 7.5 5 7.5H10V5.6875C9.625 5.4375 9.32292 5.13542 9.09375 4.78125C8.86458 4.42708 8.75 4 8.75 3.5C8.75 3.1875 8.8125 2.88021 8.9375 2.57812C9.0625 2.27604 9.25 2 9.5 1.75L11.25 0L13 1.75C13.25 2 13.4375 2.27604 13.5625 2.57812C13.6875 2.88021 13.75 3.1875 13.75 3.5C13.75 4 13.6354 4.42708 13.4062 4.78125C13.1771 5.13542 12.875 5.4375 12.5 5.6875V7.5H17.5C18.1875 7.5 18.776 7.74479 19.2656 8.23438C19.7552 8.72396 20 9.3125 20 10V15C20.6875 15 21.276 15.2448 21.7656 15.7344C22.2552 16.224 22.5 16.8125 22.5 17.5V23.75C22.5 24.1042 22.3802 24.401 22.1406 24.6406C21.901 24.8802 21.6042 25 21.25 25H1.25ZM5 15H17.5V10H5V15ZM2.5 22.5H20V17.5H2.5V22.5Z" fill="white"/>
</svg>
