<svg width="50" height="35" viewBox="0 0 50 35" fill="none" xmlns="http://www.w3.org/2000/svg">
<path d="M25 27.2727C27.8409 27.2727 30.2557 26.2784 32.2443 24.2898C34.233 22.3011 35.2273 19.8864 35.2273 17.0455C35.2273 14.2045 34.233 11.7898 32.2443 9.80114C30.2557 7.8125 27.8409 6.81818 25 6.81818C22.1591 6.81818 19.7443 7.8125 17.7557 9.80114C15.767 11.7898 14.7727 14.2045 14.7727 17.0455C14.7727 19.8864 15.767 22.3011 17.7557 24.2898C19.7443 26.2784 22.1591 27.2727 25 27.2727ZM25 23.1818C23.2955 23.1818 21.8466 22.5852 20.6534 21.392C19.4602 20.1989 18.8636 18.75 18.8636 17.0455C18.8636 15.3409 19.4602 13.892 20.6534 12.6989C21.8466 11.5057 23.2955 10.9091 25 10.9091C26.7045 10.9091 28.1534 11.5057 29.3466 12.6989C30.5398 13.892 31.1364 15.3409 31.1364 17.0455C31.1364 18.75 30.5398 20.1989 29.3466 21.392C28.1534 22.5852 26.7045 23.1818 25 23.1818ZM25 34.0909C19.4697 34.0909 14.4318 32.5473 9.88636 29.4602C5.34091 26.3731 2.04545 22.2348 0 17.0455C2.04545 11.8561 5.34091 7.7178 9.88636 4.63068C14.4318 1.54356 19.4697 0 25 0C30.5303 0 35.5682 1.54356 40.1136 4.63068C44.6591 7.7178 47.9545 11.8561 50 17.0455C47.9545 22.2348 44.6591 26.3731 40.1136 29.4602C35.5682 32.5473 30.5303 34.0909 25 34.0909ZM25 29.5455C29.2803 29.5455 33.2102 28.4186 36.7898 26.1648C40.3693 23.911 43.1061 20.8712 45 17.0455C43.1061 13.2197 40.3693 10.1799 36.7898 7.92614C33.2102 5.67235 29.2803 4.54545 25 4.54545C20.7197 4.54545 16.7898 5.67235 13.2102 7.92614C9.63068 10.1799 6.89394 13.2197 5 17.0455C6.89394 20.8712 9.63068 23.911 13.2102 26.1648C16.7898 28.4186 20.7197 29.5455 25 29.5455Z" fill="white"/>
</svg>
