<svg width="18" height="28" viewBox="0 0 18 28" fill="none" xmlns="http://www.w3.org/2000/svg">
<path d="M2.5 27.5C1.8125 27.5 1.22396 27.2552 0.734375 26.7656C0.244792 26.276 0 25.6875 0 25V2.5C0 1.8125 0.244792 1.22396 0.734375 0.734375C1.22396 0.244792 1.8125 0 2.5 0H15C15.6875 0 16.276 0.244792 16.7656 0.734375C17.2552 1.22396 17.5 1.8125 17.5 2.5V25C17.5 25.6875 17.2552 26.276 16.7656 26.7656C16.276 27.2552 15.6875 27.5 15 27.5H2.5ZM2.5 21.25V25H15V21.25H2.5ZM8.75 24.375C9.10417 24.375 9.40104 24.2552 9.64062 24.0156C9.88021 23.776 10 23.4792 10 23.125C10 22.7708 9.88021 22.474 9.64062 22.2344C9.40104 21.9948 9.10417 21.875 8.75 21.875C8.39583 21.875 8.09896 21.9948 7.85938 22.2344C7.61979 22.474 7.5 22.7708 7.5 23.125C7.5 23.4792 7.61979 23.776 7.85938 24.0156C8.09896 24.2552 8.39583 24.375 8.75 24.375ZM2.5 18.75H15V6.25H2.5V18.75ZM2.5 3.75H15V2.5H2.5V3.75Z" fill="white"/>
</svg>
