<svg width="34" height="42" viewBox="0 0 34 42" fill="none" xmlns="http://www.w3.org/2000/svg">
<path d="M6.58331 41.75C5.43748 41.75 4.45658 41.3421 3.6406 40.5261C2.82463 39.7101 2.41665 38.7292 2.41665 37.5834V10.5H0.333313V6.33337H10.75V4.25004H23.25V6.33337H33.6666V10.5H31.5833V37.5834C31.5833 38.7292 31.1753 39.7101 30.3594 40.5261C29.5434 41.3421 28.5625 41.75 27.4166 41.75H6.58331ZM27.4166 10.5H6.58331V37.5834H27.4166V10.5ZM10.75 33.4167H14.9166V14.6667H10.75V33.4167ZM19.0833 33.4167H23.25V14.6667H19.0833V33.4167Z" fill="white"/>
<path d="M6.58331 37.5834C5.43748 37.5834 4.45658 37.1754 3.6406 36.3594C2.82463 35.5434 2.41665 34.5625 2.41665 33.4167V6.33337H0.333313V2.16671H10.75V0.083374H23.25V2.16671H33.6666V6.33337H31.5833V33.4167C31.5833 34.5625 31.1753 35.5434 30.3594 36.3594C29.5434 37.1754 28.5625 37.5834 27.4166 37.5834H6.58331ZM27.4166 6.33337H6.58331V33.4167H27.4166V6.33337ZM10.75 29.25H14.9166V10.5H10.75V29.25ZM19.0833 29.25H23.25V10.5H19.0833V29.25Z" fill="white"/>
</svg>
